HIERARCHY
ROOT Hips
{
  OFFSET 0.874659 18.2731 -3.98854
  CHANNELS 6 Xposition Yposition Zposition Zrotation Xrotation Yrotation
  JOINT LHipJoint
  {
    OFFSET 0 0 0
    CHANNELS 3 Zrotation Xrotation Yrotation
    JOINT LeftUpLeg
    {
      OFFSET 1.8 -1.4 0.085
      CHANNELS 3 Zrotation Xrotation Yrotation
      JOINT LeftLeg
      {
        OFFSET 2.215 -6 0
        CHANNELS 3 Zrotation Xrotation Yrotation
        JOINT LeftFoot
        {
          OFFSET 2.5 -6.9 0
          CHANNELS 3 Zrotation Xrotation Yrotation
          JOINT LeftToeBase
          {
            OFFSET 0.2 -0.5 1.95
            CHANNELS 3 Zrotation Xrotation Yrotation
            End Site
            {
              OFFSET 0 0 1
            }
          }
        }
      }
    }
  }
  JOINT RHipJoint
  {
    OFFSET 0 0 0
    CHANNELS 3 Zrotation Xrotation Yrotation
    JOINT RightUpLeg
    {
      OFFSET -1.8 -1.4 0.085
      CHANNELS 3 Zrotation Xrotation Yrotation
      JOINT RightLeg
      {
        OFFSET -2.215 -6 0
        CHANNELS 3 Zrotation Xrotation Yrotation
        JOINT RightFoot
        {
          OFFSET -2.5 -6.9 0
          CHANNELS 3 Zrotation Xrotation Yrotation
          JOINT RightToeBase
          {
            OFFSET -0.2 -0.5 1.95
            CHANNELS 3 Zrotation Xrotation Yrotation
            End Site
            {
              OFFSET 0 0 1
            }
          }
        }
      }
    }
  }
  JOINT LowerBack
  {
    OFFSET 0 0 0
    CHANNELS 3 Zrotation Xrotation Yrotation
    JOINT Spine
    {
      OFFSET -0.087 1.94 -0.2889
      CHANNELS 3 Zrotation Xrotation Yrotation
      JOINT Spine1
      {
        OFFSET 0 1.95 0.06
        CHANNELS 3 Zrotation Xrotation Yrotation
        JOINT Neck
        {
          OFFSET 0 0 0
          CHANNELS 3 Zrotation Xrotation Yrotation
          JOINT Neck1
          {
            OFFSET 0 1.6 0.34
            CHANNELS 3 Zrotation Xrotation Yrotation
            JOINT Head
            {
              OFFSET 0 1.667 -0.24
              CHANNELS 3 Zrotation Xrotation Yrotation
              End Site
              {
                OFFSET 0 1.686 -0.12
              }
            }
          }
        }
        JOINT LeftShoulder
        {
          OFFSET 0 0 0
          CHANNELS 3 Zrotation Xrotation Yrotation
          JOINT LeftArm
          {
            OFFSET 2.7 1.55 -0.73
            CHANNELS 3 Zrotation Xrotation Yrotation
            JOINT LeftForeArm
            {
              OFFSET 5.45 0 0
              CHANNELS 3 Zrotation Xrotation Yrotation
              JOINT LeftHand
              {
                OFFSET 3.45 0 0
                CHANNELS 3 Zrotation Xrotation Yrotation
                JOINT LeftFingerBase
                {
                  OFFSET 0 0 0
                  CHANNELS 3 Zrotation Xrotation Yrotation
                  JOINT LeftHandIndex1
                  {
                    OFFSET 0.75 0 0
                    CHANNELS 3 Zrotation Xrotation Yrotation
                    End Site
                    {
                      OFFSET 0.6 0 0
                    }
                  }
                }
                JOINT LThumb
                {
                  OFFSET 0 0 0
                  CHANNELS 3 Zrotation Xrotation Yrotation
                  End Site
                  {
                    OFFSET 0.59 0 0.59
                  }
                }
              }
            }
          }
        }
        JOINT RightShoulder
        {
          OFFSET 0 0 0
          CHANNELS 3 Zrotation Xrotation Yrotation
          JOINT RightArm
          {
            OFFSET -2.7 1.55 -0.73
            CHANNELS 3 Zrotation Xrotation Yrotation
            JOINT RightForeArm
            {
              OFFSET -5.45 0 0
              CHANNELS 3 Zrotation Xrotation Yrotation
              JOINT RightHand
              {
                OFFSET -3.45 0 0
                CHANNELS 3 Zrotation Xrotation Yrotation
                JOINT RightFingerBase
                {
                  OFFSET 0 0 0
                  CHANNELS 3 Zrotation Xrotation Yrotation
                  JOINT RightHandIndex1
                  {
                    OFFSET -0.75 0 0
                    CHANNELS 3 Zrotation Xrotation Yrotation
                    End Site
                    {
                      OFFSET -0.6 0 0
                    }
                  }
                }
                JOINT RThumb
                {
                  OFFSET 0 0 0
                  CHANNELS 3 Zrotation Xrotation Yrotation
                  End Site
                  {
                    OFFSET -0.59 0 0.59
                  }
                }
              }
            }
          }
        }
      }
    }
  }
}
MOTION
Frames:	12
Frame Time:	0.00833333
0.87487 18.2733 -3.98876 0.00120407 0.00725703 -0.00192739 -4.25645e-019 -3.10601e-018 -0 -18.6488 -4.63688 1.395 2.50666 3.56071 18.9372 -1.92692 1.7854 -20.486 2.68153e-016 2.08041e-014 -4.81525e-014 -4.25645e-019 -3.10601e-018 -0 15.4243 -2.42124 -2.1092 0.230345 6.04743 0.743247 0.146611 -3.59981 1.35973 -3.06387e-015 -3.10601e-018 1.55301e-018 -4.25645e-019 -3.10601e-018 -0 0.00163844 -0.0112187 -4.14798e-005 -0.00541009 0.000116514 0.000918598 -0.00209915 -16 -0.00761559 -2.83928e-009 21 2.00158e-009 0.000985601 11.0003 -0.000960613 0.301434 0.00495506 3.3789 -28.2603 -39.6009 -23.1795 -1.6983 44.1854 6.68641e-006 -1.4048 -0.566251 3.14539 -6.26571e-009 1.63324e-007 -8.34603e-007 -1.98785e-016 -7.95139e-016 4.77083e-015 1.88845e-015 -3.97569e-016 1.59028e-015 -0.335161 -0.00795341 -3.50602 20.3927 -43.0329 27.1958 -7.09432 57.4884 -0.0221404 -14.6219 -0.724963 -5.23443 -3.08116e-015 0 -0 -2.48481e-015 7.95139e-016 -1.59028e-015 9.93923e-017 -7.95139e-016 -0 
0.875802 18.2743 -3.98957 0.00653711 0.0416229 -0.00951355 -3.13938e-019 0 4.65902e-018 -18.6663 -4.59143 1.39843 2.52712 3.42746 18.8745 -1.94771 1.80976 -20.4646 6.5646e-015 2.07978e-014 -4.8168e-014 -3.13938e-019 0 4.65902e-018 15.4028 -2.81582 -1.94161 0.25384 6.68905 0.47055 0.153065 -3.79971 1.43873 -1.1305e-014 1.2424e-017 -1.2424e-017 -3.13938e-019 0 4.65902e-018 0.0122571 -0.0632794 -0.000453156 -0.031918 0.00120049 0.0051121 -0.00209915 -16 -0.00761559 -2.83928e-009 21 2.00158e-009 0.00478252 11.0027 -0.00428396 0.302052 0.00495505 3.38057 -28.2405 -39.6009 -23.1682 -1.73153 44.1329 6.68046e-006 -1.28858 -0.562421 3.10967 -6.26571e-009 1.63324e-007 -8.34603e-007 -1.19271e-015 -1.98785e-016 3.18055e-015 -1.2921e-015 -3.97569e-016 -1.59028e-015 -0.335161 -0.00795341 -3.50602 20.3945 -43.0252 27.1909 -7.09288 57.5564 -0.0221817 -14.6297 -0.724942 -5.25328 -6.36111e-015 3.18055e-015 -0 -3.37934e-015 1.59028e-015 -0 -3.18055e-015 2.38542e-015 -0 
0.876749 18.2754 -3.99038 0.0119612 0.0768427 -0.01708 2.5115e-018 0 -0 -18.6842 -4.54497 1.4019 2.54791 3.29101 18.8108 -1.96906 1.83473 -20.4433 -1.85613e-015 2.07854e-014 -4.81556e-014 2.5115e-018 0 -0 15.3833 -3.21636 -1.77154 0.283981 7.33967 0.193114 0.160362 -4.00245 1.51892 -5.31128e-015 0 1.2424e-017 2.5115e-018 0 -0 0.0235253 -0.11649 -0.000904154 -0.059205 0.00238334 0.00938867 -0.00209915 -16 -0.00761559 -2.83928e-009 21 2.00158e-009 0.00855645 11.0054 -0.00752431 0.302646 0.00495505 3.38215 -28.221 -39.6009 -23.1574 -1.76557 44.0792 6.6744e-006 -1.16869 -0.558678 3.07388 -6.26571e-009 1.63324e-007 -8.34603e-007 4.42296e-015 -1.98785e-016 1.59028e-015 3.47873e-015 1.19271e-015 1.59028e-015 -0.335161 -0.00795341 -3.50602 20.3967 -43.0175 27.1863 -7.09173 57.6259 -0.0222242 -14.6382 -0.724918 -5.27327 -2.68359e-015 3.97569e-015 1.59028e-015 -5.66536e-015 -7.95139e-016 -1.59028e-015 4.96962e-016 3.97569e-015 1.59028e-015 
0.877539 18.2762 -3.99126 0.0164916 0.102668 -0.0248636 -4.91381e-019 0 -0 -18.698 -4.50969 1.40491 2.56167 3.18847 18.7591 -1.98438 1.85304 -20.421 -4.28241e-016 2.0773e-014 -4.81556e-014 -4.91381e-019 0 -0 15.369 -3.55186 -1.62851 0.314154 7.89015 -0.0400872 0.164964 -4.17367 1.5867 1.86691e-015 0 -0 -4.91381e-019 0 -0 0.0276392 -0.157053 -0.000922621 -0.077925 0.00247864 0.0127516 -0.00209915 -16 -0.00761559 -2.83928e-009 21 2.00158e-009 0.0125867 11.0057 -0.0116783 0.30351 0.00495503 3.38465 -28.1993 -39.6011 -23.142 -1.79071 44.0379 6.66974e-006 -1.08909 -0.553969 3.03888 -6.26571e-009 1.63324e-007 -8.34603e-007 -1.3418e-015 3.97569e-016 3.18055e-015 2.83268e-015 1.98785e-016 3.18055e-015 -0.335161 -0.00795341 -3.50602 20.3945 -43.0092 27.1791 -7.08743 57.6781 -0.0222561 -14.6394 -0.72491 -5.28069 -0 0 1.59028e-015 -9.93923e-017 -7.95139e-016 -1.59028e-015 3.18055e-015 -7.95139e-016 1.59028e-015 
0.877996 18.2767 -3.9923 0.0191084 0.108671 -0.0331204 4.71968e-018 -2.48481e-017 1.2424e-017 -18.7028 -4.4979 1.40706 2.561 3.15751 18.7322 -1.98695 1.85732 -20.3968 7.37047e-015 2.08103e-014 -4.81804e-014 4.71968e-018 -2.48481e-017 1.2424e-017 15.3616 -3.75144 -1.54196 0.335089 8.2321 -0.1798 0.162939 -4.27925 1.62855 -3.15959e-015 4.96962e-017 -0 4.71968e-018 -2.48481e-017 1.2424e-017 0.0165639 -0.171203 -6.10277e-005 -0.0785893 0.000653527 0.0141608 -0.00191649 -16.0001 -0.00761559 0.0001944 20.9999 -4.82403e-005 0.0169383 11.0013 -0.0176384 0.30496 0.00495501 3.3891 -28.1733 -39.6017 -23.1171 -1.79727 44.0211 6.66785e-006 -1.09523 -0.547128 3.00502 -6.26571e-009 1.63324e-007 -8.34603e-007 -2.73329e-015 -5.96354e-016 3.18055e-015 -1.19271e-015 1.98785e-016 1.59028e-015 -0.335161 -0.00795341 -3.50602 20.3831 -42.9993 27.1665 -7.07656 57.6927 -0.0222651 -14.6245 -0.724934 -5.26012 -5.36719e-015 1.59028e-015 3.18055e-015 -5.36719e-015 2.38542e-015 1.59028e-015 -2.18663e-015 1.59028e-015 3.18055e-015 
0.877963 18.2766 -3.99353 0.0189103 0.0875469 -0.042249 -5.82377e-019 1.2424e-017 -0 -18.694 -4.51677 1.40944 2.53941 3.22207 18.7371 -1.97283 1.84299 -20.3699 -3.77453e-016 2.07978e-014 -4.81804e-014 -5.82377e-019 1.2424e-017 -0 15.3621 -3.78579 -1.52308 0.342262 8.3269 -0.206897 0.150888 -4.30757 1.6398 -6.43527e-016 0 -0 -5.82377e-019 1.2424e-017 -0 -0.0167248 -0.153285 0.00151733 -0.0548552 0.00180148 0.0125077 0.0012496 -16.001 -0.00761563 0.00356402 20.999 -0.000884437 0.0184613 10.9912 -0.0242509 0.307454 0.00495497 3.39693 -28.139 -39.6019 -23.0795 -1.78166 44.0154 6.66721e-006 -1.22953 -0.535969 2.96485 -6.26571e-009 1.63324e-007 -8.34603e-007 2.83268e-015 -3.97569e-016 -0 -2.33572e-015 7.95139e-016 -1.59028e-015 -0.335161 -0.00795341 -3.50602 20.3633 -42.9866 27.147 -7.05789 57.643 -0.0222346 -14.5711 -0.725026 -5.17974 -6.85807e-015 -2.38542e-015 -1.59028e-015 -3.18055e-015 0 -3.18055e-015 -3.67752e-015 -2.38542e-015 -1.59028e-015 
0.877675 18.2762 -3.99487 0.0172284 0.0514072 -0.0517565 -9.82761e-019 0 -1.2424e-017 -18.6783 -4.55329 1.41129 2.5068 3.34063 18.7606 -1.94909 1.81808 -20.3415 7.42449e-015 2.08041e-014 -4.8168e-014 -9.82761e-019 0 -1.2424e-017 15.3667 -3.71908 -1.54612 0.338893 8.26735 -0.164198 0.133473 -4.28733 1.63183 -1.07371e-015 0 -2.48481e-017 -9.82761e-019 0 -1.2424e-017 -0.0616532 -0.115733 0.00371749 -0.0174727 0.00200971 0.00933902 0.00480536 -16.002 -0.00761566 0.00734833 20.998 -0.00182354 0.0199235 10.9776 -0.0320635 0.310414 0.00495492 3.40631 -28.1012 -39.6022 -23.0347 -1.75228 44.0262 6.66842e-006 -1.42975 -0.523064 2.92481 -6.26571e-009 1.63324e-007 -8.34603e-007 2.33572e-015 -7.95139e-016 1.59028e-015 2.48481e-016 -5.96354e-016 1.59028e-015 -0.335161 -0.00795341 -3.50602 20.3368 -42.9727 27.1235 -7.03435 57.5636 -0.0221861 -14.504 -0.725144 -5.07619 -2.88238e-015 -1.59028e-015 -0 -2.38542e-015 7.95139e-016 -0 2.98177e-016 -1.59028e-015 -0 
0.877459 18.2758 -3.99624 0.0159388 0.0164594 -0.0608852 -5.00177e-018 3.10601e-018 -0 -18.6652 -4.59073 1.41098 2.47713 3.45873 18.7859 -1.9249 1.79305 -20.3133 6.71192e-015 2.08072e-014 -4.81618e-014 -5.00177e-018 3.10601e-018 -0 15.371 -3.62796 -1.58091 0.33245 8.16072 -0.102176 0.117309 -4.25142 1.61767 1.23299e-015 -9.93923e-017 2.48481e-017 -5.00177e-018 3.10601e-018 -0 -0.103443 -0.0733908 0.00662743 0.0193106 -0.00642756 0.00689533 0.00407472 -16.0018 -0.00761566 0.00657074 20.9982 -0.00163057 0.0264696 10.9628 -0.0426113 0.312962 0.00495488 3.41449 -28.067 -39.6042 -22.99 -1.71892 44.0706 6.67343e-006 -1.60787 -0.512479 2.89701 -6.26571e-009 1.63324e-007 -8.34603e-007 1.83876e-015 -7.95139e-016 4.77083e-015 -1.63997e-015 5.96354e-016 -1.59028e-015 -0.335161 -0.00795341 -3.50602 20.3047 -42.96 27.0995 -7.00936 57.5067 -0.0221515 -14.4631 -0.72522 -5.00797 1.19271e-015 -7.95139e-016 -0 1.49089e-015 -2.38542e-015 -0 4.37326e-015 -7.95139e-016 -0 
0.877645 18.2757 -3.99753 0.0169622 -0.00139066 -0.0689087 -1.05745e-018 -1.94126e-019 1.2424e-017 -18.6645 -4.61297 1.40671 2.46437 3.52352 18.7965 -1.90917 1.77811 -20.2867 3.42076e-015 2.08041e-014 -4.81509e-014 -1.05745e-018 -1.94126e-019 1.2424e-017 15.3704 -3.58596 -1.59867 0.329665 8.10915 -0.068907 0.108862 -4.23105 1.60965 -8.83941e-015 -4.96962e-017 -2.48481e-017 -1.05745e-018 -1.94126e-019 1.2424e-017 -0.12753 -0.0403009 0.0104099 0.0415547 -0.0317931 0.00744368 -0.00573306 -15.9989 -0.00761555 -0.00386818 21.0011 0.00096653 0.0434436 10.949 -0.0575433 0.314214 0.00495486 3.41871 -28.0435 -39.6092 -22.9525 -1.69083 44.1679 6.68443e-006 -1.6773 -0.508286 2.89362 -6.26571e-009 1.63324e-007 -8.34603e-007 -1.04362e-015 1.98785e-016 3.18055e-015 -3.47873e-016 -5.96354e-016 1.59028e-015 -0.335161 -0.00795341 -3.50602 20.2671 -42.9506 27.0779 -6.98572 57.5264 -0.0221635 -14.4907 -0.725189 -5.03597 -9.14409e-015 7.95139e-016 -0 -5.76476e-015 -7.95139e-016 -0 -5.96354e-015 7.95139e-016 1.59028e-015 
0.878387 18.2758 -3.99879 0.0216481 0.000439976 -0.0759766 2.67397e-019 -1.94126e-019 -0 -18.6806 -4.62185 1.39491 2.47211 3.53428 18.7933 -1.90151 1.77347 -20.2582 -4.64611e-015 2.08037e-014 -4.81535e-014 2.67397e-019 -1.94126e-019 -0 15.3633 -3.579 -1.60737 0.328368 8.08108 -0.0508985 0.109159 -4.21462 1.60322 -3.12309e-015 -9.93923e-017 -0 2.67397e-019 -1.94126e-019 -0 -0.130642 -0.0108182 0.0162491 0.0476461 -0.0863593 0.0123839 -0.0284548 -15.9918 -0.00761528 -0.0280625 21.0082 0.00708511 0.0761933 10.9355 -0.0792865 0.31368 0.00495486 3.41753 -28.0341 -39.6167 -22.9233 -1.66363 44.3585 6.70613e-006 -1.62039 -0.512418 2.92127 -6.26572e-009 1.63324e-007 -8.34603e-007 2.6339e-015 3.97569e-016 1.59028e-015 -3.03147e-015 -5.96354e-016 -0 -0.335161 -0.00795341 -3.50602 20.2126 -42.94 27.0529 -6.95532 57.6809 -0.0222578 -14.635 -0.724977 -5.22279 -6.95746e-015 -1.59028e-015 -1.59028e-015 -6.85807e-015 -3.97569e-015 -3.18055e-015 -3.77691e-015 -1.59028e-015 -0 
0.879371 18.2761 -4.00003 0.0277751 0.0111033 -0.0823458 -4.92594e-018 3.10601e-018 -0 -18.7044 -4.62439 1.37973 2.48972 3.52008 18.7844 -1.8975 1.77347 -20.2301 5.99127e-015 2.08041e-014 -4.81529e-014 -4.92594e-018 3.10601e-018 -0 15.3535 -3.58012 -1.61536 0.326802 8.04975 -0.0343305 0.113809 -4.1957 1.59581 2.04123e-015 4.96962e-017 -0 -4.92594e-018 3.10601e-018 -0 -0.123524 0.0175729 0.0230025 0.0465289 -0.15474 0.0192506 -0.0580976 -15.9827 -0.00761493 -0.0596269 21.0173 0.015047 0.117074 10.9218 -0.104791 0.312272 0.00495488 3.41372 -28.032 -39.6265 -22.8976 -1.63625 44.596 6.73348e-006 -1.49938 -0.520964 2.96751 -6.26571e-009 1.63324e-007 -8.34603e-007 -1.49089e-016 -7.95139e-016 1.59028e-015 -1.2921e-015 3.97569e-016 -1.59028e-015 -0.335161 -0.00795341 -3.50602 20.1512 -42.9312 27.0281 -6.92388 57.8891 -0.0223866 -14.8304 -0.724672 -5.47994 2.5842e-015 2.38542e-015 -1.59028e-015 -6.95746e-015 0 -0 2.5842e-015 1.59028e-015 -0 
0.88021 18.2763 -4.00123 0.0323652 0.019945 -0.0880634 -1.09256e-017 6.21202e-018 -1.2424e-017 -18.7243 -4.62403 1.36774 2.50583 3.5034 18.7745 -1.8942 1.77363 -20.2077 3.36306e-015 2.08017e-014 -4.81531e-014 -1.09256e-017 6.21202e-018 -1.2424e-017 15.3457 -3.58279 -1.62116 0.325605 8.02591 -0.0219721 0.118505 -4.18074 1.58995 -1.10933e-014 0 -2.48481e-017 -1.09256e-017 6.21202e-018 -1.2424e-017 -0.117418 0.0412551 0.0286582 0.0464756 -0.213432 0.0248299 -0.0864259 -15.9747 -0.00761462 -0.0897797 21.0253 0.0225039 0.155139 10.908 -0.129402 0.311148 0.0049549 3.41075 -28.0287 -39.6387 -22.8709 -1.61215 44.8063 6.75798e-006 -1.37822 -0.529106 3.01654 -6.26571e-009 1.63324e-007 -8.34603e-007 1.83876e-015 0 3.18055e-015 1.88845e-015 -3.97569e-016 1.59028e-015 -0.335161 -0.00795341 -3.50602 20.1016 -42.9306 27.0119 -6.9036 58.0341 -0.0224773 -14.9804 -0.724425 -5.68 -3.67752e-015 -7.95139e-016 -0 -3.97569e-016 -7.95139e-016 -0 -4.96962e-016 -1.59028e-015 1.59028e-015 
